<svg xmlns="http://www.w3.org/2000/svg" width="464" height="432" class="svgbob"><style>.svgbob line, .svgbob path, .svgbob circle, .svgbob rect, .svgbob polygon {
    stroke: black;
    stroke-width: 2;
    stroke-opacity: 1;
    fill-opacity: 1;
    stroke-linecap: round;
    stroke-linejoin: miter;
}
.svgbob text {
    white-space: pre;
    fill: black;
    font-family: Iosevka Fixed, monospace;
    font-size: 14px;
}
.svgbob rect.backdrop {
    stroke: none;
    fill: white;
}
.svgbob .broken {
    stroke-dasharray: 8;
}
.svgbob .filled {
    fill: black;
}
.svgbob .bg_filled {
    fill: white;
    stroke-width: 1;
}
.svgbob .nofill {
    fill: white;
}
.svgbob .end_marked_arrow {
    marker-end: url(#arrow);
}
.svgbob .start_marked_arrow {
    marker-start: url(#arrow);
}
.svgbob .end_marked_diamond {
    marker-end: url(#diamond);
}
.svgbob .start_marked_diamond {
    marker-start: url(#diamond);
}
.svgbob .end_marked_circle {
    marker-end: url(#circle);
}
.svgbob .start_marked_circle {
    marker-start: url(#circle);
}
.svgbob .end_marked_open_circle {
    marker-end: url(#open_circle);
}
.svgbob .start_marked_open_circle {
    marker-start: url(#open_circle);
}
.svgbob .end_marked_big_open_circle {
    marker-end: url(#big_open_circle);
}
.svgbob .start_marked_big_open_circle {
    marker-start: url(#big_open_circle);
}<!--separator--></style><defs><marker id="arrow" viewBox="-2 -2 8 8" refX="4" refY="2" markerWidth="7" markerHeight="7" orient="auto-start-reverse"><polygon points="0,0 0,4 4,2 0,0"></polygon></marker><marker id="diamond" viewBox="-2 -2 8 8" refX="4" refY="2" markerWidth="7" markerHeight="7" orient="auto-start-reverse"><polygon points="0,2 2,0 4,2 2,4 0,2"></polygon></marker><marker id="circle" viewBox="0 0 8 8" refX="4" refY="4" markerWidth="7" markerHeight="7" orient="auto-start-reverse"><circle cx="4" cy="4" r="2" class="filled"></circle></marker><marker id="open_circle" viewBox="0 0 8 8" refX="4" refY="4" markerWidth="7" markerHeight="7" orient="auto-start-reverse"><circle cx="4" cy="4" r="2" class="bg_filled"></circle></marker><marker id="big_open_circle" viewBox="0 0 8 8" refX="4" refY="4" markerWidth="7" markerHeight="7" orient="auto-start-reverse"><circle cx="4" cy="4" r="3" class="bg_filled"></circle></marker></defs><rect class="backdrop" x="0" y="0" width="464" height="432"></rect><text x="18" y="12" >GX</text><text x="42" y="12" >Transiver</text><text x="122" y="12" >Bank</text><text x="162" y="12" >1D</text><line x1="8" y1="88" x2="16" y2="88" class="solid"></line><line x1="216" y1="128" x2="208" y2="144" class="solid"></line><polygon points="224,132 232,136 224,140" class="filled"></polygon><text x="394" y="140" >RX</text><line x1="440" y1="128" x2="432" y2="144" class="solid"></line><line x1="8" y1="152" x2="16" y2="152" class="solid"></line><text x="210" y="156" >4</text><text x="434" y="156" >4</text><polygon points="200,164 192,168 200,172" class="filled"></polygon><line x1="216" y1="160" x2="208" y2="176" class="solid"></line><text x="394" y="172" >TX</text><polygon points="432,164 424,168 432,172" class="filled"></polygon><text x="210" y="188" >4</text><line x1="8" y1="216" x2="16" y2="216" class="solid"></line><polygon points="224,292 232,296 224,300" class="filled"></polygon><text x="394" y="300" >RX</text><polygon points="200,324 192,328 200,332" class="filled"></polygon><text x="394" y="332" >TX</text><polygon points="432,324 424,328 432,332" class="filled"></polygon><text x="18" y="60" >0</text><line x1="24" y1="88" x2="32" y2="88" class="solid"></line><line x1="40" y1="88" x2="48" y2="88" class="solid"></line><line x1="56" y1="88" x2="64" y2="88" class="solid"></line><line x1="72" y1="88" x2="80" y2="88" class="solid"></line><line x1="88" y1="88" x2="96" y2="88" class="solid"></line><line x1="104" y1="88" x2="112" y2="88" class="solid"></line><line x1="120" y1="88" x2="128" y2="88" class="solid"></line><line x1="136" y1="88" x2="144" y2="88" class="solid"></line><line x1="152" y1="88" x2="160" y2="88" class="solid"></line><line x1="168" y1="88" x2="176" y2="88" class="solid"></line><text x="18" y="124" >1</text><line x1="24" y1="152" x2="32" y2="152" class="solid"></line><line x1="40" y1="152" x2="48" y2="152" class="solid"></line><line x1="56" y1="152" x2="64" y2="152" class="solid"></line><line x1="72" y1="152" x2="80" y2="152" class="solid"></line><text x="82" y="156" >QSFP1</text><line x1="120" y1="152" x2="128" y2="152" class="solid"></line><line x1="136" y1="152" x2="144" y2="152" class="solid"></line><line x1="152" y1="152" x2="160" y2="152" class="solid"></line><line x1="168" y1="152" x2="176" y2="152" class="solid"></line><text x="258" y="156" >40GBASE</text><line x1="312" y1="152" x2="320" y2="152" class="solid"></line><text x="322" y="156" >R</text><text x="338" y="156" >PCS</text><text x="18" y="188" >2</text><line x1="24" y1="216" x2="32" y2="216" class="solid"></line><line x1="40" y1="216" x2="48" y2="216" class="solid"></line><line x1="56" y1="216" x2="64" y2="216" class="solid"></line><line x1="72" y1="216" x2="80" y2="216" class="solid"></line><line x1="88" y1="216" x2="96" y2="216" class="solid"></line><line x1="104" y1="216" x2="112" y2="216" class="solid"></line><line x1="120" y1="216" x2="128" y2="216" class="solid"></line><line x1="136" y1="216" x2="144" y2="216" class="solid"></line><line x1="152" y1="216" x2="160" y2="216" class="solid"></line><line x1="168" y1="216" x2="176" y2="216" class="solid"></line><text x="18" y="252" >3</text><text x="18" y="316" >4</text><text x="82" y="316" >SFP1</text><text x="258" y="316" >10GBASE</text><line x1="312" y1="312" x2="320" y2="312" class="solid"></line><text x="322" y="316" >R</text><text x="338" y="316" >PCS</text><text x="18" y="380" >5</text><text x="74" y="380" >unused</text><g><line x1="4" y1="24" x2="188" y2="24" class="solid"></line><line x1="4" y1="24" x2="4" y2="408" class="solid"></line><line x1="188" y1="24" x2="188" y2="408" class="solid"></line><line x1="188" y1="136" x2="224" y2="136" class="solid"></line><line x1="4" y1="280" x2="188" y2="280" class="solid"></line><line x1="188" y1="296" x2="224" y2="296" class="solid"></line><line x1="4" y1="344" x2="188" y2="344" class="solid"></line><line x1="4" y1="408" x2="188" y2="408" class="solid"></line></g><g><line x1="236" y1="120" x2="420" y2="120" class="solid"></line><line x1="236" y1="120" x2="236" y2="184" class="solid"></line><line x1="420" y1="120" x2="420" y2="184" class="solid"></line><line x1="420" y1="136" x2="452" y2="136" class="solid"></line><line x1="452" y1="136" x2="452" y2="168" class="solid"></line><line x1="200" y1="168" x2="236" y2="168" class="solid"></line><line x1="432" y1="168" x2="452" y2="168" class="solid"></line><line x1="236" y1="184" x2="420" y2="184" class="solid"></line></g><g><line x1="236" y1="280" x2="420" y2="280" class="solid"></line><line x1="236" y1="280" x2="236" y2="344" class="solid"></line><line x1="420" y1="280" x2="420" y2="344" class="solid"></line><line x1="420" y1="296" x2="452" y2="296" class="solid"></line><line x1="452" y1="296" x2="452" y2="328" class="solid"></line><line x1="200" y1="328" x2="236" y2="328" class="solid"></line><line x1="432" y1="328" x2="452" y2="328" class="solid"></line><line x1="236" y1="344" x2="420" y2="344" class="solid"></line></g></svg>